<svg height='300px' width='300px'  fill="#000000" xmlns="http://www.w3.org/2000/svg" xmlns:xlink="http://www.w3.org/1999/xlink" version="1.1" x="0px" y="0px" viewBox="0 0 100 100" enable-background="new 0 0 100 100" xml:space="preserve"><path d="M75.013,48.27c-0.53-0.635-1.476-0.725-2.112-0.193c-5.902,4.908-13.386,7.613-21.072,7.613  c-7.688,0-15.171-2.705-21.072-7.613c-0.638-0.531-1.584-0.443-2.113,0.193s-0.443,1.582,0.193,2.113  c6.44,5.355,14.605,8.307,22.992,8.307c8.386,0,16.551-2.951,22.99-8.307C75.455,49.852,75.543,48.906,75.013,48.27z M87.68,23.604  c-2.986,0-5.417,2.43-5.417,5.418c0,2.986,2.431,5.416,5.417,5.416s5.417-2.43,5.417-5.416  C93.097,26.033,90.666,23.604,87.68,23.604z M87.68,31.438c-1.332,0-2.417-1.084-2.417-2.416c0-1.334,1.085-2.418,2.417-2.418  s2.417,1.084,2.417,2.418C90.097,30.354,89.012,31.438,87.68,31.438z M68.93,47.125c2.986,0,5.417-2.43,5.417-5.416  c0-2.988-2.431-5.418-5.417-5.418s-5.417,2.43-5.417,5.418C63.513,44.695,65.943,47.125,68.93,47.125z M68.93,39.291  c1.332,0,2.417,1.084,2.417,2.418c0,1.332-1.085,2.416-2.417,2.416s-2.417-1.084-2.417-2.416  C66.513,40.375,67.598,39.291,68.93,39.291z M32.816,44.459c-0.533,0.635-0.452,1.58,0.182,2.113  c5.455,4.59,12.264,7.098,19.236,7.098c0.202,0,0.404-0.002,0.607-0.006c4.324-0.09,8.488-1.102,12.378-3.012  c0.628-0.309,0.959-1.01,0.798-1.691c-0.16-0.682-0.763-1.109-1.471-1.154c-2.016-0.008-7.715-0.311-9.984-1.963  c-0.669-0.484-1.607-0.34-2.096,0.33c-0.487,0.67-0.34,1.607,0.33,2.096c1.241,0.904,2.992,1.486,4.768,1.861  c-1.564,0.322-3.162,0.5-4.785,0.533c-1.336,0.031-2.666-0.049-3.98-0.221c-2.326-6.236-3.234-7.42-10.212-6.906  c-0.826,0.062-1.446,0.781-1.386,1.607s0.775,1.455,1.606,1.385c4.38-0.324,5.081-0.359,6.513,3.215  c-3.763-1.025-7.314-2.879-10.391-5.467C34.296,43.744,33.35,43.826,32.816,44.459z M83.268,54.596  c-0.727-0.396-1.638-0.133-2.036,0.596c-0.397,0.727-0.132,1.637,0.595,2.035c6.891,3.777,5.502,10.797,3.235,17.166  c-0.278,0.781,0.13,1.639,0.91,1.916c0.166,0.061,0.336,0.088,0.503,0.088c0.617,0,1.194-0.383,1.413-0.998  C91.6,64.969,90.133,58.359,83.268,54.596z M84.23,48.434c0.658,0.502,1.6,0.377,2.102-0.283c0.504-0.658,0.377-1.6-0.281-2.102  c-3.675-2.807-2.275-9.486-2.261-9.551c0.146-0.658-0.167-1.334-0.765-1.648c-0.598-0.318-1.331-0.193-1.793,0.299  c-3.382,3.6-3.59,9.283-3.79,14.779c-0.349,9.557-1.048,15.414-10.616,15.414c-0.828,0-1.5,0.672-1.5,1.5s0.672,1.5,1.5,1.5  c12.946,0,13.316-10.148,13.614-18.305c0.088-2.412,0.174-4.762,0.505-6.865C81.43,45.104,82.398,47.033,84.23,48.434z   M29.257,34.438c2.987,0,5.417-2.43,5.417-5.416c0-2.988-2.43-5.418-5.417-5.418s-5.417,2.43-5.417,5.418  C23.84,32.008,26.27,34.438,29.257,34.438z M29.257,26.604c1.333,0,2.417,1.084,2.417,2.418c0,1.332-1.084,2.416-2.417,2.416  s-2.417-1.084-2.417-2.416C26.84,27.688,27.924,26.604,29.257,26.604z M24.846,54.596c-0.729-0.396-1.639-0.133-2.037,0.596  c-0.398,0.727-0.132,1.637,0.594,2.035c6.892,3.777,5.504,10.797,3.236,17.166c-0.277,0.781,0.129,1.639,0.91,1.916  c0.166,0.061,0.336,0.088,0.503,0.088c0.616,0,1.194-0.383,1.413-0.998C33.178,64.969,31.709,58.359,24.846,54.596z M25.807,48.434  c0.66,0.502,1.601,0.377,2.104-0.283c0.502-0.658,0.377-1.6-0.282-2.102c-3.675-2.807-2.274-9.486-2.261-9.551  c0.146-0.658-0.168-1.334-0.765-1.648c-0.598-0.318-1.331-0.193-1.794,0.299c-3.381,3.6-3.588,9.283-3.789,14.779  c-0.349,9.557-1.048,15.414-10.616,15.414c-0.828,0-1.5,0.672-1.5,1.5s0.672,1.5,1.5,1.5c12.946,0,13.317-10.148,13.614-18.305  c0.088-2.412,0.174-4.762,0.506-6.865C23.006,45.104,23.975,47.033,25.807,48.434z"></path></svg>